# xmcd
#
# Track frame offsets: 
#        150
#        18334
#        36733
#        58334
#        76295
#        89810
#        104800
#        129216
#        148396
#        168764
#        186136
#
# Disc length: 2695 seconds
#
# Revision: 0
# Processed by: cddbd v1.5.2PL0 Copyright (c) Steve Scherf et al.
# Submitted via: ExactAudioCopy v0.99pb1
#
DISCID=a20a850b
DTITLE=Mark Johnson - Tallman
DYEAR=1900
DGENRE=Bluegrass
TTITLE0=Highway Love
TTITLE1=Big Trouble in Paradise
TTITLE2=Above the Sound
TTITLE3=I would If I Could
TTITLE4=Wishful Thinkin'
TTITLE5=Eaten Up
TTITLE6=Don't Stop for Nothin'
TTITLE7=The Idea
TTITLE8=Tallman
TTITLE9=Where and the Way I Am
TTITLE10=It Snowed Again
EXTD=
EXTT0=
EXTT1=
EXTT2=
EXTT3=
EXTT4=
EXTT5=
EXTT6=
EXTT7=
EXTT8=
EXTT9=
EXTT10=
PLAYORDER=
